<svg xmlns="http://www.w3.org/2000/svg" viewBox="0 0 80 80"><defs><style>.cls-1{fill:none;stroke:#006373;stroke-linecap:round;stroke-linejoin:round;stroke-width:2.83px;}</style></defs><path class="cls-1" d="M62.58,47.42a6.78,6.78,0,0,1-.12,1.2h.09c4.31,0,4.31-2.43,4.31-2.43V40.38C63.09,33.21,55,33.81,55,33.81a34.51,34.51,0,0,0-34.5-5L14,28.9l1.32,2.46c-3.65,2.69-4.34,9-4.34,9,0,5.86,2.13,7.66,2.88,8.11a6.36,6.36,0,0,1-.1-1.07"/><path class="cls-1" d="M26.37,47.42a6,6,0,0,1-.12,1.2H50.11a6,6,0,0,1-.12-1.2"/><path class="cls-1" d="M20.08,41.13a6.29,6.29,0,0,0-6.3,6.29,6.34,6.34,0,0,0,6.3,6.29,6.29,6.29,0,0,0,6.17-5.09,6,6,0,0,0,.12-1.2A6.29,6.29,0,0,0,20.08,41.13Z"/><path class="cls-1" d="M56.28,41.13A6.29,6.29,0,0,0,50,47.42a6,6,0,0,0,.12,1.2,6.29,6.29,0,0,0,12.35,0,6.78,6.78,0,0,0,.12-1.2A6.29,6.29,0,0,0,56.28,41.13Z"/><polyline class="cls-1" points="37.04 31.41 37.04 36.09 48.79 36.09"/></svg>
