<?xml version="1.0" standalone="no"?>
<!DOCTYPE svg PUBLIC "-//W3C//DTD SVG 20010904//EN"
 "http://www.w3.org/TR/2001/REC-SVG-20010904/DTD/svg10.dtd">
<svg version="1.0" xmlns="http://www.w3.org/2000/svg"
 width="616.000000pt" height="616.000000pt" viewBox="0 0 616.000000 616.000000"
 preserveAspectRatio="xMidYMid meet">

<g transform="translate(0.000000,616.000000) scale(0.100000,-0.100000)"
fill="#99cace" stroke="none">
<path d="M903 5188 l-262 -263 22 -31 c83 -116 205 -225 304 -272 49 -23 71
-27 143 -27 73 0 93 4 143 29 114 55 224 191 248 304 29 141 -62 304 -259 465
-38 32 -71 57 -73 57 -2 0 -122 -118 -266 -262z m372 -23 c95 -117 84 -232
-35 -339 -54 -48 -96 -66 -160 -66 -68 0 -110 19 -176 81 l-55 53 172 172
c195 195 180 189 254 99z"/>
<path d="M1480 4615 l-265 -265 60 -60 60 -60 270 270 270 270 -55 55 c-30 30
-59 55 -65 55 -5 0 -129 -119 -275 -265z"/>
<path d="M1909 4566 c-99 -35 -158 -127 -145 -223 3 -25 24 -86 47 -137 53
-118 60 -159 29 -191 -16 -17 -34 -25 -56 -25 -46 0 -131 80 -175 164 l-35 66
-62 -30 -63 -29 16 -38 c63 -149 238 -303 348 -303 74 0 160 57 199 133 27 54
21 140 -16 227 -73 168 -76 207 -22 232 51 22 133 -42 179 -140 12 -26 22 -48
23 -50 1 -2 30 11 64 28 53 27 60 34 54 53 -30 96 -145 221 -237 255 -66 25
-97 27 -148 8z"/>
<path d="M2338 4041 c-78 -25 -114 -50 -186 -125 -86 -89 -126 -176 -126 -272
0 -59 5 -81 32 -136 50 -101 178 -217 287 -258 23 -9 27 -6 55 50 16 33 30 62
30 64 0 3 -20 14 -45 25 -54 24 -147 110 -169 156 -9 18 -16 58 -16 88 0 46 6
63 36 108 39 60 81 100 134 128 135 72 251 6 346 -197 1 -2 30 11 64 28 57 29
61 33 55 58 -21 87 -146 225 -244 270 -74 34 -175 39 -253 13z"/>
<path d="M2828 3561 c-77 -25 -115 -50 -179 -118 -68 -72 -93 -112 -114 -187
-37 -126 5 -255 114 -360 86 -81 154 -111 256 -111 69 0 89 4 145 31 96 45
182 129 227 222 35 70 38 83 38 161 0 106 -28 174 -106 256 -103 109 -249 150
-381 106z m207 -160 c107 -48 151 -172 98 -275 -25 -48 -105 -126 -155 -152
-52 -26 -133 -32 -171 -13 -32 17 -87 70 -103 101 -19 37 -18 131 2 171 41 79
113 145 191 173 52 18 91 17 138 -5z"/>
<path d="M3434 3035 c-69 -147 -190 -429 -234 -548 l-33 -89 59 -58 59 -59
110 43 c244 95 635 270 635 285 0 4 -27 33 -60 66 l-59 59 -208 -101 c-233
-114 -324 -155 -330 -150 -6 6 30 86 145 320 l106 218 -67 67 -66 66 -57 -119z"/>
<path d="M3830 2255 l-265 -265 192 -192 193 -193 50 50 50 49 -132 133 -133
133 65 65 65 65 105 -105 c58 -58 110 -105 116 -105 5 0 30 20 54 45 l44 45
-109 110 -109 110 49 50 c27 27 54 50 59 50 6 0 64 -53 128 -117 l118 -117 50
49 50 50 -177 177 c-98 98 -182 178 -188 178 -6 0 -129 -119 -275 -265z"/>
<path d="M4310 1785 l-265 -265 60 -60 60 -60 97 97 98 97 30 -29 c39 -37 39
-64 -4 -227 l-33 -127 67 -66 66 -66 27 86 c14 47 34 126 44 175 14 74 20 89
32 84 39 -15 118 -16 151 -2 88 37 152 126 154 212 1 87 -47 172 -164 286 -53
52 -110 103 -126 112 l-30 17 -264 -264z m387 -40 c43 -62 43 -97 -1 -141 -23
-23 -43 -34 -63 -34 -33 0 -102 42 -148 90 l-29 30 74 75 74 74 30 -23 c17
-13 45 -45 63 -71z"/>
<path d="M4962 1428 c-28 -101 -58 -217 -67 -258 -17 -75 -17 -75 -121 -180
l-104 -105 60 -60 60 -60 103 102 102 101 130 31 c144 34 376 100 387 110 4 4
-21 35 -56 70 l-64 63 -54 -20 c-64 -24 -261 -82 -278 -82 -14 0 -14 -1 47
193 l47 148 -64 64 c-36 36 -67 65 -71 65 -3 0 -29 -82 -57 -182z"/>
</g>
</svg>
